<?xml version="1.0" encoding="utf-8"?>
<!-- Generator: Adobe Illustrator 18.1.1, SVG Export Plug-In . SVG Version: 6.00 Build 0)  -->
<!DOCTYPE svg PUBLIC "-//W3C//DTD SVG 1.1//EN" "http://www.w3.org/Graphics/SVG/1.1/DTD/svg11.dtd">
<svg version="1.1" id="Layer_1" xmlns="http://www.w3.org/2000/svg" xmlns:xlink="http://www.w3.org/1999/xlink" x="0px" y="0px"
	 viewBox="0 0 612 792" enable-background="new 0 0 612 792" xml:space="preserve">
<path fill="#55B6D9" d="M459.1,620.4H152.9c-32.3,0-57.6-16.5-57.6-37.5c0-15.9,14-29.2,35.6-34.8V430.8
	c-21.6-5.6-35.6-18.9-35.6-34.8c0-15.9,14-29.2,35.6-34.8V244c-21.6-5.6-35.6-18.9-35.6-34.8c0-21,25.3-37.5,57.6-37.5h306.2
	c32.3,0,57.6,16.5,57.6,37.5c0,15.9-14,29.2-35.6,34.8v117.3c21.6,5.6,35.6,18.9,35.6,34.8c0,15.9-14,29.2-35.6,34.8V548
	c21.6,5.6,35.6,18.9,35.6,34.8C516.7,603.9,491.4,620.4,459.1,620.4z M152.9,192c-22.7,0-37.3,10.2-37.3,17.2c0,6,10.3,13.9,27,16.4
	c5,0.7,8.7,5,8.7,10v133.9c0,5-3.7,9.3-8.7,10c-16.7,2.5-27,10.5-27,16.4s10.3,13.9,27,16.4c5,0.7,8.7,5,8.7,10v133.8
	c0,5-3.7,9.3-8.7,10c-16.7,2.5-27,10.5-27,16.5c0,7,14.5,17.2,37.3,17.2h306.2c22.7,0,37.3-10.2,37.3-17.2c0-6-10.3-14-27-16.5
	c-5-0.7-8.7-5-8.7-10V422.5c0-5,3.7-9.3,8.7-10c16.7-2.5,27-10.5,27-16.4s-10.3-13.9-27-16.4c-5-0.7-8.7-5-8.7-10V235.7
	c0-5,3.7-9.3,8.7-10c16.7-2.5,27-10.5,27-16.4c0-7-14.5-17.2-37.3-17.2L152.9,192L152.9,192z"/>
<path fill="#55B6D9" d="M315.1,514.9c-46.9,0-85-38.2-85-85c0-43.7,69.3-129.7,77.2-139.3c1.9-2.4,4.8-3.7,7.9-3.7l0,0
	c3,0,5.9,1.4,7.9,3.7c7.9,9.7,77.2,95.6,77.2,139.3C400.1,476.7,362,514.9,315.1,514.9z M315.1,313.3
	c-23.4,30.1-64.7,89.1-64.7,116.5c0,35.7,29,64.7,64.7,64.7s64.7-29,64.7-64.7C379.8,402.3,338.5,343.4,315.1,313.3z"/>
</svg>
